<svg width="720" height="720" viewBox="0 0 720 720" fill="none" xmlns="http://www.w3.org/2000/svg" role="img" aria-labelledby="heroTitle heroDesc">
  <title id="heroTitle">Product universe illustration</title>
  <desc id="heroDesc">An abstract orbital composition illustrating the ArcadeForge product ecosystem.</desc>
  <defs>
    <radialGradient id="g1" cx="0" cy="0" r="1" gradientUnits="userSpaceOnUse" gradientTransform="translate(360 360) rotate(90) scale(270)">
      <stop stop-color="#DFF3FF"/>
      <stop offset="1" stop-color="#F9FCFF" stop-opacity="0"/>
    </radialGradient>
    <linearGradient id="g2" x1="182" y1="126" x2="540" y2="596" gradientUnits="userSpaceOnUse">
      <stop stop-color="#0A84FF"/>
      <stop offset="1" stop-color="#34C7A1"/>
    </linearGradient>
    <linearGradient id="g3" x1="254" y1="222" x2="470" y2="520" gradientUnits="userSpaceOnUse">
      <stop stop-color="#0B1320"/>
      <stop offset="1" stop-color="#1B3155"/>
    </linearGradient>
  </defs>
  <circle cx="360" cy="360" r="270" fill="url(#g1)"/>
  <circle cx="360" cy="360" r="234" stroke="#0A84FF" stroke-opacity="0.16" stroke-width="2"/>
  <circle cx="360" cy="360" r="170" stroke="#34C7A1" stroke-opacity="0.18" stroke-width="2"/>
  <circle cx="360" cy="360" r="102" stroke="#0B1320" stroke-opacity="0.12" stroke-width="2"/>
  <rect x="214" y="192" width="292" height="336" rx="58" fill="url(#g3)"/>
  <rect x="232" y="212" width="256" height="296" rx="42" fill="#10203A"/>
  <rect x="264" y="256" width="192" height="72" rx="26" fill="url(#g2)"/>
  <rect x="264" y="352" width="120" height="120" rx="34" fill="#F7FBFF" fill-opacity="0.92"/>
  <rect x="396" y="352" width="60" height="120" rx="24" fill="#F7FBFF" fill-opacity="0.28"/>
  <circle cx="554" cy="248" r="46" fill="#F8FBFF"/>
  <path d="M554 217L579 248L554 279L529 248L554 217Z" fill="#0A84FF" fill-opacity="0.2"/>
  <circle cx="154" cy="448" r="58" fill="#0B1320"/>
  <path d="M136 469C136 452.431 149.431 439 166 439H172V499H166C149.431 499 136 485.569 136 469Z" fill="#F7FBFF"/>
  <path d="M172 439H182C198.569 439 212 452.431 212 469C212 485.569 198.569 499 182 499H172V439Z" fill="#34C7A1"/>
  <circle cx="528" cy="520" r="74" fill="#E6FFF7"/>
  <path d="M528 472C501.49 472 480 493.49 480 520C480 546.51 501.49 568 528 568C554.51 568 576 546.51 576 520C576 493.49 554.51 472 528 472ZM528 550C511.431 550 498 536.569 498 520C498 503.431 511.431 490 528 490C544.569 490 558 503.431 558 520C558 536.569 544.569 550 528 550Z" fill="#0A84FF" fill-opacity="0.22"/>
</svg>
