<svg width="96" height="96" viewBox="0 0 96 96" fill="none" xmlns="http://www.w3.org/2000/svg" role="img" aria-labelledby="title desc">
  <title id="title">Privacy icon</title>
  <desc id="desc">Icon representing privacy and on-device protection.</desc>
  <rect x="8" y="8" width="80" height="80" rx="26" fill="#F1F6FB"/>
  <path d="M48 18L72 28V45C72 60.9904 61.3198 75.0155 46.0077 79.2265L48 79L49.9923 79.2265C34.6802 75.0155 24 60.9904 24 45V28L48 18Z" fill="#0B1320"/>
  <path d="M48 32C42.4772 32 38 36.4772 38 42V45H34V62H62V45H58V42C58 36.4772 53.5228 32 48 32ZM44 42C44 39.7909 45.7909 38 48 38C50.2091 38 52 39.7909 52 42V45H44V42Z" fill="#F8FBFF"/>
</svg>
