<svg width="640" height="440" viewBox="0 0 640 440" fill="none" xmlns="http://www.w3.org/2000/svg" role="img" aria-labelledby="title desc">
  <title id="title">Contact hub illustration</title>
  <desc id="desc">A premium contact routing visual for support, business, and enterprise channels.</desc>
  <defs>
    <linearGradient id="bg" x1="74" y1="44" x2="576" y2="400" gradientUnits="userSpaceOnUse">
      <stop stop-color="#F8FBFF"/>
      <stop offset="1" stop-color="#EAF3FB"/>
    </linearGradient>
    <linearGradient id="nodeA" x1="96" y1="144" x2="256" y2="246" gradientUnits="userSpaceOnUse">
      <stop stop-color="#0A84FF"/>
      <stop offset="1" stop-color="#2A9DFF"/>
    </linearGradient>
    <linearGradient id="nodeB" x1="246" y1="66" x2="404" y2="170" gradientUnits="userSpaceOnUse">
      <stop stop-color="#34C7A1"/>
      <stop offset="1" stop-color="#59D4B3"/>
    </linearGradient>
    <linearGradient id="nodeC" x1="404" y1="146" x2="562" y2="246" gradientUnits="userSpaceOnUse">
      <stop stop-color="#0B1320"/>
      <stop offset="1" stop-color="#213B61"/>
    </linearGradient>
  </defs>

  <rect x="20" y="20" width="600" height="400" rx="34" fill="url(#bg)"/>
  <rect x="78" y="76" width="484" height="292" rx="30" fill="#FFFFFF" fill-opacity="0.78" stroke="#FFFFFF"/>

  <path d="M210 206H320" stroke="#B3CBE2" stroke-width="8" stroke-linecap="round"/>
  <path d="M320 206H430" stroke="#B3CBE2" stroke-width="8" stroke-linecap="round"/>
  <path d="M320 132V278" stroke="#B3CBE2" stroke-width="8" stroke-linecap="round"/>

  <rect x="130" y="164" width="160" height="84" rx="24" fill="url(#nodeA)"/>
  <rect x="240" y="86" width="160" height="84" rx="24" fill="url(#nodeB)"/>
  <rect x="350" y="164" width="160" height="84" rx="24" fill="url(#nodeC)"/>
  <rect x="240" y="244" width="160" height="84" rx="24" fill="#FFFFFF" stroke="#D9E7F4"/>

  <circle cx="162" cy="206" r="12" fill="#F8FBFF"/>
  <circle cx="272" cy="128" r="12" fill="#F8FBFF"/>
  <circle cx="382" cy="206" r="12" fill="#F8FBFF"/>
  <circle cx="272" cy="286" r="12" fill="#0A84FF"/>

  <rect x="182" y="192" width="84" height="10" rx="5" fill="#F8FBFF" fill-opacity="0.92"/>
  <rect x="182" y="210" width="60" height="8" rx="4" fill="#F8FBFF" fill-opacity="0.76"/>

  <rect x="292" y="114" width="84" height="10" rx="5" fill="#F8FBFF" fill-opacity="0.92"/>
  <rect x="292" y="132" width="62" height="8" rx="4" fill="#F8FBFF" fill-opacity="0.76"/>

  <rect x="402" y="192" width="84" height="10" rx="5" fill="#F8FBFF" fill-opacity="0.92"/>
  <rect x="402" y="210" width="60" height="8" rx="4" fill="#F8FBFF" fill-opacity="0.76"/>

  <rect x="292" y="272" width="84" height="10" rx="5" fill="#17304E" fill-opacity="0.86"/>
  <rect x="292" y="290" width="60" height="8" rx="4" fill="#6D7E93"/>
</svg>
