<svg width="640" height="480" viewBox="0 0 640 480" fill="none" xmlns="http://www.w3.org/2000/svg" role="img" aria-labelledby="bizTitle bizDesc">
  <title id="bizTitle">IAA and IAP monetization map</title>
  <desc id="bizDesc">A diagram showing two complementary monetization tracks for utility apps and mobile games.</desc>
  <rect x="32" y="32" width="576" height="416" rx="40" fill="#F8FBFF" stroke="#D8E7F5"/>
  <rect x="68" y="78" width="224" height="152" rx="28" fill="#0A84FF" fill-opacity="0.1"/>
  <rect x="348" y="78" width="224" height="152" rx="28" fill="#34C7A1" fill-opacity="0.14"/>
  <rect x="68" y="258" width="504" height="126" rx="30" fill="#0B1320"/>
  <rect x="98" y="106" width="84" height="84" rx="22" fill="#0A84FF"/>
  <rect x="378" y="106" width="84" height="84" rx="22" fill="#34C7A1"/>
  <path d="M206 148H262" stroke="#85BEFF" stroke-width="8" stroke-linecap="round"/>
  <path d="M486 148H542" stroke="#9EE7D2" stroke-width="8" stroke-linecap="round"/>
  <rect x="98" y="290" width="130" height="20" rx="10" fill="#F8FBFF" fill-opacity="0.92"/>
  <rect x="98" y="326" width="190" height="14" rx="7" fill="#8FA8CB"/>
  <rect x="98" y="352" width="160" height="14" rx="7" fill="#8FA8CB"/>
  <rect x="318" y="290" width="160" height="20" rx="10" fill="#F8FBFF" fill-opacity="0.92"/>
  <rect x="318" y="326" width="220" height="14" rx="7" fill="#8FA8CB"/>
  <rect x="318" y="352" width="190" height="14" rx="7" fill="#8FA8CB"/>
  <circle cx="294" cy="321" r="18" fill="#0A84FF"/>
  <circle cx="294" cy="351" r="18" fill="#34C7A1"/>
</svg>
