<svg width="1200" height="630" viewBox="0 0 1200 630" fill="none" xmlns="http://www.w3.org/2000/svg" role="img" aria-labelledby="title desc">
  <title id="title">ArcadeForge social share card</title>
  <desc id="desc">A wide social card introducing ArcadeForge Studios as an iOS utility and mobile game studio.</desc>
  <defs>
    <linearGradient id="bg" x1="90" y1="60" x2="1090" y2="570" gradientUnits="userSpaceOnUse">
      <stop stop-color="#F8FBFF"/>
      <stop offset="1" stop-color="#EAF4FB"/>
    </linearGradient>
    <radialGradient id="glowA" cx="0" cy="0" r="1" gradientUnits="userSpaceOnUse" gradientTransform="translate(220 90) rotate(55) scale(420 320)">
      <stop stop-color="#0A84FF" stop-opacity="0.18"/>
      <stop offset="1" stop-color="#0A84FF" stop-opacity="0"/>
    </radialGradient>
    <radialGradient id="glowB" cx="0" cy="0" r="1" gradientUnits="userSpaceOnUse" gradientTransform="translate(980 540) rotate(-20) scale(350 240)">
      <stop stop-color="#34C7A1" stop-opacity="0.22"/>
      <stop offset="1" stop-color="#34C7A1" stop-opacity="0"/>
    </radialGradient>
    <linearGradient id="mark" x1="736" y1="136" x2="1000" y2="404" gradientUnits="userSpaceOnUse">
      <stop stop-color="#0A84FF"/>
      <stop offset="1" stop-color="#34C7A1"/>
    </linearGradient>
    <linearGradient id="device" x1="770" y1="160" x2="940" y2="456" gradientUnits="userSpaceOnUse">
      <stop stop-color="#0B1320"/>
      <stop offset="1" stop-color="#183054"/>
    </linearGradient>
  </defs>
  <rect width="1200" height="630" rx="36" fill="url(#bg)"/>
  <circle cx="210" cy="100" r="320" fill="url(#glowA)"/>
  <circle cx="990" cy="540" r="280" fill="url(#glowB)"/>
  <rect x="74" y="74" width="1052" height="482" rx="36" fill="#FFFFFF" fill-opacity="0.72" stroke="#FFFFFF"/>
  <rect x="112" y="110" width="78" height="78" rx="25" fill="url(#mark)"/>
  <path d="M138 127H167C175.837 127 183 134.163 183 143C183 151.837 175.837 159 167 159H152V174H138V127Z" fill="#FFFFFF"/>
  <path d="M152 159L174 174H157.4L152 170.4V159Z" fill="#E7FFF8"/>
  <text x="216" y="149" fill="#0B1320" font-family="SF Pro Display, Helvetica Neue, Arial, sans-serif" font-size="42" font-weight="700" letter-spacing="-1.8">ArcadeForge Studios</text>
  <text x="114" y="246" fill="#0B1320" font-family="SF Pro Display, Helvetica Neue, Arial, sans-serif" font-size="78" font-weight="700" letter-spacing="-3.2">Premium iOS Utilities</text>
  <text x="114" y="330" fill="#0B1320" font-family="SF Pro Display, Helvetica Neue, Arial, sans-serif" font-size="78" font-weight="700" letter-spacing="-3.2">and Mobile Games</text>
  <text x="114" y="394" fill="#526173" font-family="SF Pro Text, Helvetica Neue, Arial, sans-serif" font-size="30" font-weight="500">IAA and IAP products with polished UX, privacy-aware monetization, and marketplace-ready execution.</text>
  <rect x="114" y="444" width="174" height="54" rx="27" fill="#0B1320"/>
  <text x="145" y="479" fill="#F8FBFF" font-family="SF Pro Text, Helvetica Neue, Arial, sans-serif" font-size="26" font-weight="600">ourappsx.com</text>
  <rect x="746" y="138" width="300" height="354" rx="56" fill="url(#device)"/>
  <rect x="766" y="160" width="260" height="314" rx="40" fill="#10203A"/>
  <rect x="812" y="214" width="170" height="58" rx="22" fill="url(#mark)"/>
  <rect x="812" y="298" width="98" height="98" rx="30" fill="#F7FBFF" fill-opacity="0.95"/>
  <rect x="926" y="298" width="56" height="98" rx="22" fill="#F7FBFF" fill-opacity="0.24"/>
  <rect x="796" y="174" width="200" height="18" rx="9" fill="#09131F"/>
  <rect x="702" y="214" width="126" height="54" rx="27" fill="#FFFFFF" fill-opacity="0.74"/>
  <text x="730" y="248" fill="#0A84FF" font-family="SF Pro Text, Helvetica Neue, Arial, sans-serif" font-size="22" font-weight="700">IAA + IAP</text>
  <rect x="886" y="430" width="178" height="50" rx="25" fill="#FFFFFF" fill-opacity="0.8"/>
  <text x="920" y="462" fill="#0B1320" font-family="SF Pro Text, Helvetica Neue, Arial, sans-serif" font-size="22" font-weight="600">Apple-first</text>
</svg>
