<svg width="640" height="480" viewBox="0 0 640 480" fill="none" xmlns="http://www.w3.org/2000/svg" role="img" aria-labelledby="teamTitle teamDesc">
  <title id="teamTitle">Team systems illustration</title>
  <desc id="teamDesc">A structured illustration showing the collaboration between design, engineering, growth and compliance.</desc>
  <defs>
    <linearGradient id="teamBg" x1="74" y1="54" x2="556" y2="430" gradientUnits="userSpaceOnUse">
      <stop stop-color="#0A84FF" stop-opacity="0.16"/>
      <stop offset="1" stop-color="#34C7A1" stop-opacity="0.18"/>
    </linearGradient>
  </defs>
  <rect x="44" y="44" width="552" height="392" rx="40" fill="#F8FBFF"/>
  <rect x="44" y="44" width="552" height="392" rx="40" stroke="#D8E7F5"/>
  <rect x="86" y="84" width="152" height="132" rx="30" fill="url(#teamBg)"/>
  <rect x="244" y="84" width="152" height="132" rx="30" fill="#0B1320"/>
  <rect x="402" y="84" width="152" height="132" rx="30" fill="#E7FFF8"/>
  <rect x="86" y="240" width="220" height="152" rx="32" fill="#0A84FF" fill-opacity="0.12"/>
  <rect x="322" y="240" width="232" height="152" rx="32" fill="#0B1320" fill-opacity="0.96"/>
  <path d="M162 216V240" stroke="#0A84FF" stroke-width="6" stroke-linecap="round"/>
  <path d="M320 216V240" stroke="#0A84FF" stroke-width="6" stroke-linecap="round"/>
  <path d="M478 216V240" stroke="#34C7A1" stroke-width="6" stroke-linecap="round"/>
  <path d="M162 216H320" stroke="#B8D4EC" stroke-width="6" stroke-linecap="round"/>
  <path d="M320 216H478" stroke="#B8D4EC" stroke-width="6" stroke-linecap="round"/>
  <circle cx="162" cy="146" r="28" fill="#0A84FF"/>
  <circle cx="320" cy="146" r="28" fill="#F4FBFF"/>
  <circle cx="478" cy="146" r="28" fill="#34C7A1"/>
  <rect x="116" y="182" width="92" height="12" rx="6" fill="#A8C9E6"/>
  <rect x="274" y="182" width="92" height="12" rx="6" fill="#344865"/>
  <rect x="432" y="182" width="92" height="12" rx="6" fill="#A7E4D0"/>
  <rect x="116" y="274" width="160" height="18" rx="9" fill="#8FC4FF"/>
  <rect x="116" y="308" width="110" height="14" rx="7" fill="#BBDDFD"/>
  <rect x="116" y="340" width="140" height="14" rx="7" fill="#BBDDFD"/>
  <rect x="352" y="274" width="170" height="18" rx="9" fill="#F8FBFF" fill-opacity="0.92"/>
  <rect x="352" y="308" width="190" height="14" rx="7" fill="#8FA8CB"/>
  <rect x="352" y="340" width="132" height="14" rx="7" fill="#8FA8CB"/>
</svg>
